<svg width="15" height="9" viewBox="0 0 15 9" fill="none" xmlns="http://www.w3.org/2000/svg">
<path d="M6.9147 8.75564L0.239632 1.93832C0.0851213 1.78065 0 1.57016 0 1.34573C0 1.12129 0.0851213 0.910811 0.239632 0.753134L0.731092 0.251086C1.05133 -0.0755998 1.57182 -0.0755998 1.89157 0.251086L7.49689 5.97575L13.1084 0.244734C13.2629 0.0870582 13.4689 0 13.6885 0C13.9084 0 14.1144 0.0870582 14.269 0.244734L14.7604 0.746782C14.9149 0.904583 15 1.11494 15 1.33938C15 1.56381 14.9149 1.77429 14.7604 1.93197L8.0792 8.75564C7.9242 8.91369 7.71725 9.0005 7.49726 9C7.2764 9.0005 7.06958 8.91369 6.9147 8.75564Z" fill="#A0A0A0"/>
</svg>
